<svg xmlns="http://www.w3.org/2000/svg" width="119.366" height="52.06" viewBox="0 0 119.366 52.06"><defs><style>.a{fill:#e27866;}.b{fill:#fff;}</style></defs><g transform="translate(1.903 45.933)"><path class="a" d="M6.28,82.317h.643v4.594H6.28V84.79H4.033v2.121H3.39V82.317h.643v1.916H6.28Z" transform="translate(-3.39 -82.032)"/><path class="a" d="M11.136,88.451a1.116,1.116,0,0,0,.19.063.872.872,0,0,0,.229.03.9.9,0,0,0,.57-.163,1.4,1.4,0,0,0,.372-.527q-.419-.8-.779-1.687a14.775,14.775,0,0,1-.6-1.807h.663q.073.3.176.643t.229.709q.126.365.272.73c.1.243.2.477.3.7q.252-.7.438-1.38t.351-1.4h.637q-.238.974-.531,1.872t-.63,1.681a3.549,3.549,0,0,1-.275.514,1.534,1.534,0,0,1-.316.354,1.134,1.134,0,0,1-.387.205,1.651,1.651,0,0,1-.488.067,1.2,1.2,0,0,1-.152-.01c-.053-.007-.1-.016-.155-.026s-.1-.024-.14-.037a.571.571,0,0,1-.089-.033Z" transform="translate(-6.737 -82.928)"/><path class="a" d="M20,87.407a1.689,1.689,0,0,1-.308.136,1.56,1.56,0,0,1-.535.083,1.725,1.725,0,0,1-.586-.1,1.277,1.277,0,0,1-.481-.309,1.49,1.49,0,0,1-.325-.52,2.073,2.073,0,0,1-.12-.743,2.039,2.039,0,0,1,.113-.692,1.549,1.549,0,0,1,.328-.544,1.511,1.511,0,0,1,.527-.358,1.821,1.821,0,0,1,.7-.129,4,4,0,0,1,.752.062c.214.043.395.081.541.116v3.076a1.454,1.454,0,0,1-.411,1.154A1.857,1.857,0,0,1,18.953,89a3.333,3.333,0,0,1-.613-.053,3.48,3.48,0,0,1-.5-.125l.113-.537a2.735,2.735,0,0,0,.454.129,2.679,2.679,0,0,0,.56.057,1.167,1.167,0,0,0,.792-.219.9.9,0,0,0,.242-.7v-.146ZM20,84.848a1.929,1.929,0,0,0-.249-.05,2.96,2.96,0,0,0-.421-.023.938.938,0,0,0-.766.325,1.309,1.309,0,0,0-.268.862,1.524,1.524,0,0,0,.076.511,1.013,1.013,0,0,0,.206.351.8.8,0,0,0,.3.205.958.958,0,0,0,.348.066,1.393,1.393,0,0,0,.451-.07,1.122,1.122,0,0,0,.325-.162V84.848Z" transform="translate(-9.642 -82.872)"/><path class="a" d="M25.289,82.619a.394.394,0,0,1-.281-.109.433.433,0,0,1,0-.59.418.418,0,0,1,.563,0,.433.433,0,0,1,0,.59A.4.4,0,0,1,25.289,82.619Zm.312,4.071h-.617V83.242H25.6Z" transform="translate(-12.819 -81.81)"/><path class="a" d="M27.94,86.023a2.2,2.2,0,0,1,.133-.8,1.658,1.658,0,0,1,.351-.567,1.437,1.437,0,0,1,.5-.339,1.571,1.571,0,0,1,.583-.113,1.328,1.328,0,0,1,1.067.435,2,2,0,0,1,.372,1.322v.1a1.028,1.028,0,0,1-.007.116h-2.36a1.259,1.259,0,0,0,.312.816,1.141,1.141,0,0,0,.849.279,2.256,2.256,0,0,0,.547-.057,1.945,1.945,0,0,0,.335-.109l.086.517a1.8,1.8,0,0,1-.395.126,2.832,2.832,0,0,1-.64.066,2.035,2.035,0,0,1-.779-.136,1.453,1.453,0,0,1-.54-.375,1.536,1.536,0,0,1-.316-.567A2.418,2.418,0,0,1,27.94,86.023Zm2.367-.339A1.036,1.036,0,0,0,30.1,85a.722.722,0,0,0-.594-.268.806.806,0,0,0-.374.083.862.862,0,0,0-.275.216.984.984,0,0,0-.176.3,1.518,1.518,0,0,0-.083.351h1.71Z" transform="translate(-14.156 -82.861)"/><path class="a" d="M35.11,84.4q.212-.053.564-.113a4.871,4.871,0,0,1,.809-.059,1.75,1.75,0,0,1,.683.116,1.072,1.072,0,0,1,.434.325,1.255,1.255,0,0,1,.229.5,2.935,2.935,0,0,1,.066.643v1.935h-.616v-1.8a2.942,2.942,0,0,0-.043-.543.92.92,0,0,0-.143-.364.56.56,0,0,0-.266-.2,1.165,1.165,0,0,0-.411-.063c-.067,0-.135,0-.205.006s-.138.01-.2.017-.122.014-.172.023l-.109.02v2.91H35.11Z" transform="translate(-17.3 -82.872)"/><path class="a" d="M41.8,86.023a2.189,2.189,0,0,1,.133-.8,1.665,1.665,0,0,1,.351-.567,1.437,1.437,0,0,1,.5-.339,1.575,1.575,0,0,1,.583-.113,1.329,1.329,0,0,1,1.068.435,2,2,0,0,1,.371,1.322v.1a1.036,1.036,0,0,1-.006.116h-2.36a1.253,1.253,0,0,0,.312.816,1.139,1.139,0,0,0,.849.279,2.26,2.26,0,0,0,.547-.057,1.962,1.962,0,0,0,.335-.109l.086.517a1.812,1.812,0,0,1-.395.126,2.833,2.833,0,0,1-.64.066,2.039,2.039,0,0,1-.779-.136,1.457,1.457,0,0,1-.54-.375,1.527,1.527,0,0,1-.315-.567A2.4,2.4,0,0,1,41.8,86.023Zm2.367-.339A1.037,1.037,0,0,0,43.962,85a.721.721,0,0,0-.593-.268.81.81,0,0,0-.374.083.868.868,0,0,0-.275.216.972.972,0,0,0-.175.3,1.462,1.462,0,0,0-.083.351h1.71Z" transform="translate(-20.236 -82.861)"/><path class="a" d="M52.339,86.372q1.007,0,1.007-.689a.69.69,0,0,0-.089-.362.854.854,0,0,0-.243-.258,1.694,1.694,0,0,0-.348-.189c-.13-.053-.268-.106-.414-.159a4.2,4.2,0,0,1-.477-.2,1.649,1.649,0,0,1-.391-.258,1.09,1.09,0,0,1-.262-.355,1.165,1.165,0,0,1-.1-.5,1.152,1.152,0,0,1,.411-.942,1.734,1.734,0,0,1,1.134-.339,2.955,2.955,0,0,1,.76.09,1.709,1.709,0,0,1,.5.2l-.2.523a1.814,1.814,0,0,0-.414-.169,2.215,2.215,0,0,0-.64-.083,1.4,1.4,0,0,0-.345.04.885.885,0,0,0-.278.119.6.6,0,0,0-.19.2.577.577,0,0,0-.07.288.609.609,0,0,0,.073.312.718.718,0,0,0,.205.222,1.736,1.736,0,0,0,.308.176c.117.053.246.106.388.159.2.08.382.16.547.239a1.8,1.8,0,0,1,.431.285,1.138,1.138,0,0,1,.282.395,1.383,1.383,0,0,1,.1.553,1.085,1.085,0,0,1-.441.929,2.068,2.068,0,0,1-1.243.325,3.226,3.226,0,0,1-.5-.036,3.714,3.714,0,0,1-.408-.086,2.407,2.407,0,0,1-.308-.106c-.086-.038-.153-.07-.2-.1l.193-.531a2.88,2.88,0,0,0,.464.193A2.41,2.41,0,0,0,52.339,86.372Z" transform="translate(-24.233 -81.949)"/><path class="a" d="M57.813,86.023a2.189,2.189,0,0,1,.132-.8,1.666,1.666,0,0,1,.351-.567,1.436,1.436,0,0,1,.5-.339,1.571,1.571,0,0,1,.583-.113,1.328,1.328,0,0,1,1.067.435,2,2,0,0,1,.372,1.322v.1a1.03,1.03,0,0,1-.007.116h-2.36a1.256,1.256,0,0,0,.312.816,1.139,1.139,0,0,0,.849.279,2.26,2.26,0,0,0,.547-.057,1.945,1.945,0,0,0,.335-.109l.086.517a1.8,1.8,0,0,1-.394.126,2.832,2.832,0,0,1-.64.066,2.037,2.037,0,0,1-.779-.136,1.457,1.457,0,0,1-.54-.375,1.527,1.527,0,0,1-.315-.567A2.4,2.4,0,0,1,57.813,86.023Zm2.367-.339A1.036,1.036,0,0,0,59.971,85a.721.721,0,0,0-.594-.268.81.81,0,0,0-.374.083.86.86,0,0,0-.275.216.962.962,0,0,0-.176.3,1.519,1.519,0,0,0-.083.351H60.18Z" transform="translate(-27.257 -82.861)"/><path class="a" d="M66.256,84.23a1.71,1.71,0,0,1,.182.01c.068.006.136.015.2.026l.182.033c.055.012.1.021.123.03l-.106.537a1.977,1.977,0,0,0-.677-.1,1.624,1.624,0,0,0-.341.036c-.113.024-.187.042-.222.05v2.9h-.617v-3.3a4.152,4.152,0,0,1,.544-.149A3.491,3.491,0,0,1,66.256,84.23Z" transform="translate(-30.4 -82.871)"/><path class="a" d="M72.573,84.36a17.613,17.613,0,0,1-.607,1.857q-.349.888-.673,1.591h-.557q-.325-.7-.673-1.591a17.36,17.36,0,0,1-.606-1.857h.663q.079.324.189.693t.232.729c.082.241.165.473.248.7s.164.426.239.6c.075-.177.154-.377.239-.6s.167-.458.248-.7.159-.485.232-.729.136-.477.189-.693Z" transform="translate(-32.363 -82.928)"/><path class="a" d="M76.664,82.619a.4.4,0,0,1-.282-.109.433.433,0,0,1,0-.59.419.419,0,0,1,.564,0,.434.434,0,0,1,0,.59A.4.4,0,0,1,76.664,82.619Zm.312,4.071h-.617V83.242h.617Z" transform="translate(-35.349 -81.81)"/><path class="a" d="M81,87.82a1.892,1.892,0,0,1-.733-.132,1.482,1.482,0,0,1-.531-.372,1.552,1.552,0,0,1-.321-.567,2.355,2.355,0,0,1-.106-.726,2.193,2.193,0,0,1,.116-.729,1.727,1.727,0,0,1,.328-.574,1.461,1.461,0,0,1,.52-.377,1.689,1.689,0,0,1,.686-.136,2.771,2.771,0,0,1,.465.04,2.18,2.18,0,0,1,.444.126l-.139.523a1.477,1.477,0,0,0-.322-.106,1.819,1.819,0,0,0-.387-.04.984.984,0,0,0-.793.325,1.433,1.433,0,0,0-.275.948,1.944,1.944,0,0,0,.063.511,1.039,1.039,0,0,0,.2.4.884.884,0,0,0,.348.255,1.324,1.324,0,0,0,.517.09,1.961,1.961,0,0,0,.444-.047,1.594,1.594,0,0,0,.312-.1l.086.517a.647.647,0,0,1-.153.063,2.1,2.1,0,0,1-.225.053c-.084.015-.173.029-.268.04S81.09,87.82,81,87.82Z" transform="translate(-36.684 -82.861)"/><path class="a" d="M84.983,86.023a2.189,2.189,0,0,1,.132-.8,1.658,1.658,0,0,1,.351-.567,1.429,1.429,0,0,1,.5-.339,1.571,1.571,0,0,1,.583-.113,1.328,1.328,0,0,1,1.067.435,2,2,0,0,1,.372,1.322v.1a.909.909,0,0,1-.007.116h-2.36a1.256,1.256,0,0,0,.312.816,1.139,1.139,0,0,0,.849.279,2.26,2.26,0,0,0,.547-.057,1.946,1.946,0,0,0,.335-.109l.086.517a1.812,1.812,0,0,1-.395.126,2.832,2.832,0,0,1-.64.066,2.039,2.039,0,0,1-.779-.136,1.457,1.457,0,0,1-.54-.375,1.527,1.527,0,0,1-.315-.567A2.4,2.4,0,0,1,84.983,86.023Zm2.367-.339A1.036,1.036,0,0,0,87.141,85a.722.722,0,0,0-.594-.268.81.81,0,0,0-.374.083.862.862,0,0,0-.275.216.963.963,0,0,0-.176.3,1.489,1.489,0,0,0-.083.351H87.35Z" transform="translate(-39.172 -82.861)"/><path class="a" d="M92.745,87.3a1.223,1.223,0,0,0,.56-.1.336.336,0,0,0,.182-.318.423.423,0,0,0-.179-.358,2.833,2.833,0,0,0-.59-.3c-.133-.053-.26-.107-.381-.163a1.331,1.331,0,0,1-.316-.2.844.844,0,0,1-.212-.271.966.966,0,0,1,.259-1.117,1.445,1.445,0,0,1,.921-.268,2.545,2.545,0,0,1,.292.017c.1.011.188.024.272.04s.158.032.222.049.113.034.149.047l-.113.53a1.6,1.6,0,0,0-.312-.109,2.008,2.008,0,0,0-.511-.057.936.936,0,0,0-.451.1.341.341,0,0,0-.193.322.441.441,0,0,0,.044.2.462.462,0,0,0,.133.156,1.051,1.051,0,0,0,.222.129c.088.04.194.082.318.126.163.061.309.122.437.182a1.345,1.345,0,0,1,.328.209.8.8,0,0,1,.209.288,1.05,1.05,0,0,1,.073.414.823.823,0,0,1-.354.723,1.766,1.766,0,0,1-1.011.245,2.635,2.635,0,0,1-.716-.076,3.485,3.485,0,0,1-.351-.116l.112-.53c.071.027.184.066.339.119A1.955,1.955,0,0,0,92.745,87.3Z" transform="translate(-42.107 -82.861)"/></g><g transform="translate(0 28.324)"><path class="b" d="M5.857,65.6a6.365,6.365,0,0,1-2.389-.431,5.07,5.07,0,0,1-1.85-1.258A5.658,5.658,0,0,1,.423,61.869,8.4,8.4,0,0,1,0,59.094a7.555,7.555,0,0,1,.476-2.775A6.018,6.018,0,0,1,1.761,54.28a5.442,5.442,0,0,1,1.887-1.257,6.133,6.133,0,0,1,2.3-.432,8.165,8.165,0,0,1,1.392.108,8.6,8.6,0,0,1,1.078.252,5.2,5.2,0,0,1,.746.287,4.338,4.338,0,0,1,.4.216l-.5,1.437a2.877,2.877,0,0,0-.467-.234q-.306-.125-.692-.252a6.3,6.3,0,0,0-.844-.207,5.306,5.306,0,0,0-.925-.081,4.447,4.447,0,0,0-1.779.341A3.684,3.684,0,0,0,3,55.447a4.47,4.47,0,0,0-.853,1.572,6.779,6.779,0,0,0-.3,2.075,7.414,7.414,0,0,0,.26,2.03A4.447,4.447,0,0,0,2.892,62.7a3.512,3.512,0,0,0,1.3,1.015,4.323,4.323,0,0,0,1.824.359,6.679,6.679,0,0,0,1.994-.251A8.706,8.706,0,0,0,9.2,63.369l.449,1.437a2.5,2.5,0,0,1-.449.225,6.051,6.051,0,0,1-.809.261,10.309,10.309,0,0,1-1.132.216A10,10,0,0,1,5.857,65.6Z" transform="translate(0 -51.388)"/><path class="b" d="M18.912,64.388V50.735l1.671-.287v4.778a5.653,5.653,0,0,1,1-.278,5.738,5.738,0,0,1,1.051-.1,4.726,4.726,0,0,1,1.85.314,2.9,2.9,0,0,1,1.177.88,3.422,3.422,0,0,1,.62,1.356,7.882,7.882,0,0,1,.179,1.743v5.246H24.785V59.5a7.963,7.963,0,0,0-.117-1.473,2.489,2.489,0,0,0-.386-.988,1.535,1.535,0,0,0-.719-.549,3.154,3.154,0,0,0-1.113-.171,4.466,4.466,0,0,0-.558.036c-.191.024-.374.051-.548.08s-.33.063-.467.1a2.7,2.7,0,0,0-.3.09v7.76Z" transform="translate(-8.294 -50.448)"/><path class="b" d="M34.625,63.146a5.955,5.955,0,0,1,.359-2.164,4.533,4.533,0,0,1,.952-1.536,3.859,3.859,0,0,1,1.365-.916,4.26,4.26,0,0,1,1.581-.305A3.6,3.6,0,0,1,41.775,59.4a5.414,5.414,0,0,1,1.006,3.584v.278a2.576,2.576,0,0,1-.018.314h-6.4a3.416,3.416,0,0,0,.844,2.21,3.089,3.089,0,0,0,2.3.754,6.142,6.142,0,0,0,1.482-.152,5.318,5.318,0,0,0,.907-.3l.234,1.4a4.925,4.925,0,0,1-1.069.341,7.6,7.6,0,0,1-1.733.18,5.5,5.5,0,0,1-2.111-.368,3.931,3.931,0,0,1-1.464-1.015A4.146,4.146,0,0,1,34.9,65.1,6.479,6.479,0,0,1,34.625,63.146Zm6.413-.916a2.805,2.805,0,0,0-.566-1.86,1.95,1.95,0,0,0-1.608-.728,2.2,2.2,0,0,0-1.015.225,2.393,2.393,0,0,0-.745.584,2.673,2.673,0,0,0-.476.826,4.071,4.071,0,0,0-.225.952Z" transform="translate(-15.184 -53.858)"/><path class="b" d="M53.271,66.594a3.289,3.289,0,0,0,1.518-.269.912.912,0,0,0,.494-.862,1.145,1.145,0,0,0-.485-.97,7.71,7.71,0,0,0-1.6-.808q-.54-.215-1.033-.44a3.619,3.619,0,0,1-.853-.53,2.3,2.3,0,0,1-.575-.737,2.351,2.351,0,0,1-.216-1.06,2.379,2.379,0,0,1,.916-1.967,3.912,3.912,0,0,1,2.5-.727,7.047,7.047,0,0,1,.791.045q.395.045.737.108c.227.042.428.088.6.135s.308.09.4.126l-.305,1.437a4.218,4.218,0,0,0-.844-.3,5.429,5.429,0,0,0-1.383-.153,2.556,2.556,0,0,0-1.221.278.923.923,0,0,0-.521.871,1.182,1.182,0,0,0,.117.538,1.244,1.244,0,0,0,.36.422,2.945,2.945,0,0,0,.6.351q.36.162.862.341.665.252,1.185.494a3.716,3.716,0,0,1,.889.566,2.181,2.181,0,0,1,.566.782,2.838,2.838,0,0,1,.2,1.123,2.227,2.227,0,0,1-.961,1.958,4.785,4.785,0,0,1-2.739.665,7.168,7.168,0,0,1-1.94-.207,9.9,9.9,0,0,1-.952-.315l.305-1.437q.287.108.916.323A5.282,5.282,0,0,0,53.271,66.594Z" transform="translate(-22.093 -53.858)"/><path class="b" d="M64.226,64.388V50.735l1.671-.287v4.778a5.653,5.653,0,0,1,1-.278,5.738,5.738,0,0,1,1.051-.1,4.726,4.726,0,0,1,1.85.314,2.9,2.9,0,0,1,1.177.88,3.422,3.422,0,0,1,.62,1.356,7.882,7.882,0,0,1,.179,1.743v5.246H70.1V59.5a7.962,7.962,0,0,0-.117-1.473,2.488,2.488,0,0,0-.386-.988,1.535,1.535,0,0,0-.719-.549,3.154,3.154,0,0,0-1.113-.171,4.472,4.472,0,0,0-.558.036c-.191.024-.374.051-.548.08s-.33.063-.467.1a2.7,2.7,0,0,0-.3.09v7.76Z" transform="translate(-28.166 -50.448)"/><path class="b" d="M81.4,53.919a1.071,1.071,0,0,1-.764-.3,1.173,1.173,0,0,1,0-1.6,1.132,1.132,0,0,1,1.527,0,1.173,1.173,0,0,1,0,1.6A1.07,1.07,0,0,1,81.4,53.919Zm.844,11.03H80.574V55.608h1.671v9.341Z" transform="translate(-35.224 -51.009)"/><path class="b" d="M90.552,58.288c.144,0,.308.008.494.026s.368.042.549.072.344.06.494.09a3.223,3.223,0,0,1,.332.081l-.287,1.455a5.626,5.626,0,0,0-.655-.171,5.766,5.766,0,0,0-1.177-.1,4.384,4.384,0,0,0-.925.1q-.458.1-.6.135v7.85H87.1V58.88a11.457,11.457,0,0,1,1.473-.4A9.456,9.456,0,0,1,90.552,58.288Z" transform="translate(-38.198 -53.886)"/><path class="b" d="M96.617,63.146a5.955,5.955,0,0,1,.359-2.164,4.532,4.532,0,0,1,.952-1.536,3.859,3.859,0,0,1,1.365-.916,4.26,4.26,0,0,1,1.581-.305,3.6,3.6,0,0,1,2.892,1.176,5.411,5.411,0,0,1,1.006,3.584v.278a2.574,2.574,0,0,1-.018.314h-6.4a3.416,3.416,0,0,0,.844,2.21,3.089,3.089,0,0,0,2.3.754,6.145,6.145,0,0,0,1.482-.152,5.318,5.318,0,0,0,.907-.3l.234,1.4a4.936,4.936,0,0,1-1.069.341,7.6,7.6,0,0,1-1.733.18,5.5,5.5,0,0,1-2.111-.368,3.929,3.929,0,0,1-1.464-1.015,4.146,4.146,0,0,1-.853-1.536A6.515,6.515,0,0,1,96.617,63.146Zm6.414-.916a2.809,2.809,0,0,0-.567-1.86,1.95,1.95,0,0,0-1.608-.728,2.2,2.2,0,0,0-1.015.225,2.393,2.393,0,0,0-.745.584,2.686,2.686,0,0,0-.477.826,4.07,4.07,0,0,0-.225.952Z" transform="translate(-42.37 -53.858)"/><path class="b" d="M124.773,65.6a6.367,6.367,0,0,1-2.389-.431,5.086,5.086,0,0,1-1.851-1.258,5.649,5.649,0,0,1-1.194-2.039,8.406,8.406,0,0,1-.422-2.775,7.543,7.543,0,0,1,.476-2.775,6.017,6.017,0,0,1,1.284-2.039,5.447,5.447,0,0,1,1.887-1.257,6.131,6.131,0,0,1,2.3-.432,8.172,8.172,0,0,1,1.392.108,8.587,8.587,0,0,1,1.077.252,5.173,5.173,0,0,1,.746.287,4.417,4.417,0,0,1,.4.216l-.5,1.437a2.876,2.876,0,0,0-.467-.234q-.3-.125-.691-.252a6.344,6.344,0,0,0-.844-.207,5.311,5.311,0,0,0-.925-.081,4.447,4.447,0,0,0-1.779.341,3.677,3.677,0,0,0-1.347.988,4.48,4.48,0,0,0-.854,1.572,6.78,6.78,0,0,0-.3,2.075,7.371,7.371,0,0,0,.261,2.03,4.446,4.446,0,0,0,.781,1.572,3.516,3.516,0,0,0,1.3,1.015,4.321,4.321,0,0,0,1.824.359,6.681,6.681,0,0,0,1.994-.251,8.664,8.664,0,0,0,1.185-.449l.45,1.437a2.532,2.532,0,0,1-.45.225,6.041,6.041,0,0,1-.808.261,10.309,10.309,0,0,1-1.132.216A10.015,10.015,0,0,1,124.773,65.6Z" transform="translate(-52.15 -51.388)"/><path class="b" d="M145.312,63.128a5.9,5.9,0,0,1-.323,2.012,4.623,4.623,0,0,1-.907,1.545,3.991,3.991,0,0,1-1.392,1,4.6,4.6,0,0,1-3.521,0,3.988,3.988,0,0,1-1.392-1,4.614,4.614,0,0,1-.907-1.545,6.4,6.4,0,0,1,0-4.014,4.59,4.59,0,0,1,.907-1.554,3.986,3.986,0,0,1,1.392-1,4.6,4.6,0,0,1,3.521,0,4,4,0,0,1,1.392,1,4.605,4.605,0,0,1,.907,1.554A5.927,5.927,0,0,1,145.312,63.128Zm-1.742,0a4.017,4.017,0,0,0-.71-2.506,2.477,2.477,0,0,0-3.862,0,4.779,4.779,0,0,0,0,5.012,2.477,2.477,0,0,0,3.862,0A4.018,4.018,0,0,0,143.57,63.128Z" transform="translate(-59.881 -53.858)"/><path class="b" d="M161.981,67.71q-.576.144-1.517.3a13.056,13.056,0,0,1-2.184.162,4.632,4.632,0,0,1-1.814-.314,2.926,2.926,0,0,1-1.185-.889,3.6,3.6,0,0,1-.646-1.356,7.06,7.06,0,0,1-.2-1.733V58.639h1.671v4.886a4.233,4.233,0,0,0,.538,2.443,2.1,2.1,0,0,0,1.815.737c.179,0,.364-.006.556-.018s.371-.027.54-.045.321-.037.458-.054a1.342,1.342,0,0,0,.3-.063V58.639h1.67Z" transform="translate(-67.726 -54.04)"/><path class="b" d="M171.23,58.755q.574-.143,1.528-.3a13.2,13.2,0,0,1,2.191-.162,4.731,4.731,0,0,1,1.851.314,2.91,2.91,0,0,1,1.177.88,3.413,3.413,0,0,1,.619,1.356,7.883,7.883,0,0,1,.179,1.743v5.246H177.1V62.941a7.964,7.964,0,0,0-.117-1.473,2.489,2.489,0,0,0-.386-.988,1.541,1.541,0,0,0-.719-.549,3.154,3.154,0,0,0-1.113-.171c-.179,0-.365.007-.558.018s-.374.028-.547.045-.33.039-.467.063-.238.042-.3.054v7.886h-1.67V58.755Z" transform="translate(-75.091 -53.886)"/><path class="b" d="M189.356,56.38H192.9v1.4h-3.539v4.311a5.11,5.11,0,0,0,.109,1.159,1.735,1.735,0,0,0,.322.719,1.167,1.167,0,0,0,.54.368,2.4,2.4,0,0,0,.754.108,3.553,3.553,0,0,0,1.212-.171q.459-.171.638-.243l.324,1.383a6.278,6.278,0,0,1-.88.315,5.011,5.011,0,0,1-1.438.188,4.356,4.356,0,0,1-1.572-.243,2.294,2.294,0,0,1-1-.727,2.913,2.913,0,0,1-.529-1.195,7.926,7.926,0,0,1-.153-1.644V53.775l1.67-.287V56.38Z" transform="translate(-82.307 -51.781)"/><path class="b" d="M197.643,69.723a3.219,3.219,0,0,0,.513.171,2.467,2.467,0,0,0,.619.081,2.43,2.43,0,0,0,1.545-.441,3.8,3.8,0,0,0,1.006-1.428q-1.132-2.156-2.111-4.572a39.581,39.581,0,0,1-1.626-4.895h1.8q.2.808.477,1.743t.619,1.922q.342.988.737,1.976t.827,1.9q.684-1.887,1.185-3.737t.952-3.808h1.724q-.647,2.641-1.436,5.075t-1.707,4.553a9.522,9.522,0,0,1-.745,1.392,4.218,4.218,0,0,1-.854.961,3.118,3.118,0,0,1-1.05.557,4.493,4.493,0,0,1-1.321.18,3.317,3.317,0,0,1-.413-.027c-.145-.018-.285-.042-.423-.071s-.264-.063-.378-.1a1.785,1.785,0,0,1-.243-.09Z" transform="translate(-86.54 -54.041)"/></g><path class="a" d="M165.808,7.772a.316.316,0,0,0-.012-.058c-.033-.038.045,0-.12-.193l0,0a.294.294,0,0,0-.03-.028.311.311,0,0,0-.126-.074.409.409,0,0,0-.177-.035l-.031,0a.417.417,0,0,0-.077.011,1.96,1.96,0,0,0-.343.113,67.239,67.239,0,0,1-11.187,3.241A65.35,65.35,0,0,1,149.54,3.62c-.511-1.018-.9-1.852-1.164-2.436-.133-.291-.235-.517-.307-.677-.036-.081-.066-.142-.09-.193a.445.445,0,0,0-.045-.079.318.318,0,0,0-.047-.067c-.047-.019-.029-.124-.353-.169-.337.045-.321.15-.366.169a1.961,1.961,0,0,0-.208.394,67.131,67.131,0,0,1-5.613,10.188,65.734,65.734,0,0,1-7.912-2.071c-1.08-.356-1.948-.673-2.559-.9-.3-.115-.545-.207-.718-.27a1.722,1.722,0,0,0-.366-.117h0a.624.624,0,0,0-.077-.008h-.01a.358.358,0,0,0-.17.032c-.015.006-.031.012-.047.02a.571.571,0,0,0-.113.083.33.33,0,0,0-.084.112.407.407,0,0,0-.053.189c0,.03,0,.03,0,.032a1.493,1.493,0,0,0,.128.452,66.7,66.7,0,0,1,3.38,11.907c.849,3.43,2.307,6.545,5.291,7.877a7.659,7.659,0,0,0,3.272.7,9.169,9.169,0,0,0,6.22-2.484,9.15,9.15,0,0,0,6.217,2.483,7.686,7.686,0,0,0,3.285-.7c2.972-1.326,4.431-4.443,5.274-7.844a64.688,64.688,0,0,1,2.214-8.659c.356-1.08.67-1.948.9-2.558.112-.305.2-.546.27-.72a2.517,2.517,0,0,0,.11-.331.424.424,0,0,0,.016-.12h0v0h0A.29.29,0,0,0,165.808,7.772Zm-12.456,4.109a12.56,12.56,0,0,1,2.135,6.217,6.146,6.146,0,0,1-.408,2.237,7.845,7.845,0,0,1-6.459,4.814,9.165,9.165,0,0,0,2.021-5.7,7.65,7.65,0,0,0-.706-3.286,7.114,7.114,0,0,0-1.677-2.3,14.544,14.544,0,0,1,4.895-2.065h0l.129-.025C153.305,11.813,153.329,11.846,153.353,11.881Zm-11.583-.1.11.021a14.572,14.572,0,0,1,4.917,2.07,7.171,7.171,0,0,0-1.686,2.313,7.643,7.643,0,0,0-.7,3.273,9.153,9.153,0,0,0,2.024,5.7,7.84,7.84,0,0,1-6.457-4.8,6.16,6.16,0,0,1-.413-2.248,12.57,12.57,0,0,1,2.149-6.239C141.732,11.833,141.75,11.805,141.77,11.777Zm7.324,4.779a6.732,6.732,0,0,1,.62,2.9,8.247,8.247,0,0,1-2.188,5.537,8.238,8.238,0,0,1-2.19-5.538,6.764,6.764,0,0,1,.615-2.885,6.219,6.219,0,0,1,1.576-2.116A6.173,6.173,0,0,1,149.094,16.556ZM147.521,1.569l.006-.012a67.576,67.576,0,0,0,5.2,9.4,14.889,14.889,0,0,0-5.2,2.289,14.9,14.9,0,0,0-5.2-2.289,66.394,66.394,0,0,0,4.017-6.922C146.859,3.006,147.253,2.158,147.521,1.569Zm-9.1,25.677c-2.569-1.127-3.955-3.916-4.773-7.228a65.293,65.293,0,0,0-2.234-8.727c-.362-1.095-.683-1.976-.913-2.593-.01-.026-.019-.053-.029-.078A67.426,67.426,0,0,0,140.8,11.591a13.217,13.217,0,0,0-2.163,6.509,7.08,7.08,0,0,0,.471,2.569,8.745,8.745,0,0,0,7.274,5.4,8.235,8.235,0,0,1-5.073,1.787A6.748,6.748,0,0,1,138.423,27.246Zm22.974-7.2c-.81,3.284-2.2,6.073-4.754,7.194a6.767,6.767,0,0,1-2.9.621,8.23,8.23,0,0,1-5.075-1.788,8.747,8.747,0,0,0,7.28-5.415,7.108,7.108,0,0,0,.464-2.559,13.212,13.212,0,0,0-2.162-6.508,66.689,66.689,0,0,0,7.654-2.029c1.1-.362,1.977-.683,2.593-.913l.08-.029A66.728,66.728,0,0,0,161.4,20.045Z" transform="translate(-56.675)"/></svg>