<?xml version="1.0" standalone="no"?>
<!DOCTYPE svg PUBLIC "-//W3C//DTD SVG 20010904//EN"
 "http://www.w3.org/TR/2001/REC-SVG-20010904/DTD/svg10.dtd">
<svg version="1.0" xmlns="http://www.w3.org/2000/svg"
 width="372.000000pt" height="372.000000pt" viewBox="0 0 372.000000 372.000000"
 preserveAspectRatio="xMidYMid meet">

<g transform="translate(0.000000,372.000000) scale(0.100000,-0.100000)"
fill="#000000" stroke="none">
<path d="M180 3483 l1 -118 40 -30 c50 -37 88 -75 248 -243 l126 -133 7 38 c7
34 6 76 -7 213 -2 25 -18 106 -35 180 -44 187 -44 187 -33 175 5 -5 18 -39 27
-75 10 -36 21 -72 25 -80 4 -8 8 -34 9 -57 1 -22 9 -67 17 -99 10 -38 15 -105
15 -189 l0 -130 100 -140 c121 -170 276 -402 314 -470 31 -56 20 -44 -62 67
-31 42 -90 121 -130 175 -40 54 -107 148 -149 208 -42 61 -97 135 -122 165
-85 103 -286 310 -338 350 l-53 39 0 -390 c0 -382 1 -392 21 -421 12 -16 34
-55 50 -86 52 -104 112 -169 187 -203 196 -90 232 -110 232 -129 0 -32 -74
-26 -196 16 l-105 37 -29 -21 c-25 -19 -27 -19 -23 -3 7 26 -15 38 -79 46
l-58 7 0 -966 0 -966 592 2 592 3 18 47 c17 47 17 48 -4 68 -16 15 -18 20 -7
20 24 0 53 38 94 119 35 71 36 75 19 88 -10 7 -13 13 -7 13 6 0 30 16 53 35
35 30 44 33 61 22 23 -14 28 -87 5 -87 -8 0 -26 -29 -41 -65 -37 -85 -30 -98
75 -155 45 -25 99 -60 120 -77 l37 -33 872 0 871 0 0 53 0 53 -92 96 c-51 52
-110 105 -130 117 -63 38 -47 51 37 30 35 -9 54 -8 100 6 69 20 80 15 25 -10
-64 -29 -68 -40 -29 -81 19 -20 46 -45 61 -55 l28 -20 0 576 0 576 -22 -12
c-13 -6 -36 -27 -51 -45 -16 -19 -35 -34 -43 -34 -12 0 -12 -4 2 -25 9 -14 23
-25 30 -25 21 0 17 -20 -3 -21 -42 -2 -59 -10 -84 -41 -25 -30 -31 -32 -81
-30 l-53 2 33 -28 c18 -15 32 -31 32 -36 0 -8 -47 -4 -88 9 -17 6 -21 4 -16
-8 8 -22 -13 -30 -37 -13 -12 8 -27 12 -33 10 -7 -3 -28 2 -46 10 -28 12 -35
20 -36 46 -1 18 -11 45 -23 61 -23 31 -21 52 4 42 10 -3 20 6 30 31 8 20 20
36 25 36 13 0 13 57 0 65 -5 3 -10 13 -10 22 0 9 -8 25 -17 35 -15 17 -15 20
12 48 16 17 36 30 45 30 8 0 32 11 52 25 20 14 41 25 45 25 9 1 53 67 53 80 0
4 20 20 45 34 25 15 45 33 45 41 0 7 3 20 6 28 4 11 -2 16 -17 19 -34 5 -36
28 -2 28 29 0 35 7 97 107 27 44 34 83 15 83 -12 0 -35 -17 -130 -95 -39 -32
-62 -59 -66 -77 -3 -15 -11 -28 -18 -28 -6 0 -42 -32 -79 -71 -36 -40 -93 -89
-126 -110 -32 -22 -73 -57 -91 -79 -18 -22 -34 -39 -36 -37 -1 2 4 25 13 51
17 50 17 59 -10 234 -16 101 -20 216 -10 334 6 68 4 80 -15 106 -29 41 -27 54
3 17 l23 -29 6 29 c19 90 29 169 24 191 -3 20 -1 23 13 19 13 -4 19 4 29 37 7
24 19 57 28 74 15 29 15 32 -7 62 -13 17 -28 28 -36 25 -20 -7 -18 22 3 42 13
13 14 21 5 35 -6 9 -7 21 -2 26 4 5 11 25 14 44 6 31 5 33 -7 17 -8 -9 -24
-49 -37 -88 -17 -55 -21 -89 -18 -149 1 -43 1 -77 -1 -74 -13 12 -44 113 -43
139 2 68 13 115 28 115 9 0 14 11 14 30 0 37 -16 39 -25 3 -3 -15 -15 -45 -26
-67 -12 -25 -19 -61 -19 -97 0 -32 -4 -61 -10 -64 -5 -3 -10 -21 -10 -40 0
-40 -12 -51 -28 -25 -10 16 -9 18 4 13 12 -4 14 0 8 21 -4 16 -2 26 5 26 7 0
8 8 2 23 -5 13 -7 36 -4 53 l6 29 -22 -19 c-11 -11 -31 -52 -43 -92 -12 -40
-26 -70 -31 -67 -5 3 -6 16 -3 29 4 15 -2 42 -15 71 -24 53 -26 70 -15 133 6
31 5 42 -2 35 -6 -5 -15 -36 -21 -67 -9 -48 -7 -70 9 -135 11 -43 27 -83 36
-90 14 -10 15 -22 7 -80 l-10 -68 -2 52 c0 31 -13 82 -32 130 -24 62 -30 93
-30 149 0 39 5 83 11 98 5 15 7 32 4 37 -3 6 0 17 8 26 11 15 11 16 -4 10 -10
-3 -18 -2 -18 2 0 11 56 110 95 169 17 26 28 55 27 74 -1 42 7 53 22 32 12
-16 14 -15 29 7 10 13 17 30 17 38 0 8 9 24 19 35 31 34 73 116 67 132 -3 9
-1 12 4 9 6 -4 10 8 10 29 0 19 -5 38 -10 41 -6 4 -8 11 -5 16 4 5 -25 9 -69
9 -63 0 -74 -2 -70 -15 5 -11 2 -13 -10 -9 -9 3 -16 10 -16 15 0 14 -58 11
-63 -3 -4 -10 -6 -10 -6 0 -1 8 -19 12 -54 12 -51 0 -53 -1 -64 -32 -14 -40
-34 -172 -33 -213 1 -17 -2 -95 -6 -175 -6 -131 -5 -152 15 -216 18 -60 19
-80 11 -124 -5 -29 -10 -72 -10 -95 0 -30 -9 -55 -30 -87 -26 -39 -60 -69 -60
-53 0 3 18 53 40 111 22 59 40 122 40 141 0 49 -29 143 -44 143 -13 0 -50 -75
-101 -202 -15 -38 -30 -68 -34 -68 -3 0 -2 38 3 84 10 97 13 92 -96 227 -76
94 -124 180 -161 289 -43 126 -41 166 1 49 22 -59 56 -138 77 -175 58 -103
192 -264 220 -264 17 0 48 57 65 119 14 54 37 428 30 491 l-5 45 -223 3 -222
2 5 -27 5 -28 -11 28 c-11 27 -11 27 -105 27 -55 0 -94 -4 -94 -10 0 -5 -16
-24 -35 -42 -39 -37 -52 -85 -22 -80 15 3 17 -1 12 -17 -3 -11 1 -34 10 -51
16 -31 29 -38 40 -20 3 6 11 10 17 10 6 0 2 -10 -9 -22 -23 -25 -17 -63 12
-74 8 -4 15 -11 15 -17 0 -6 11 -38 24 -71 13 -34 27 -72 31 -86 8 -25 8 -25
-14 -6 -11 11 -21 25 -21 33 0 16 -32 78 -54 107 -12 15 -28 18 -100 17 -55 0
-94 -5 -108 -14 -34 -22 -108 -31 -108 -14 0 8 -6 14 -12 15 -7 0 -24 4 -37 8
-36 11 -23 -14 19 -36 107 -56 194 -90 251 -98 l64 -10 -57 -1 c-35 -1 -58 -6
-61 -13 -3 -8 -6 -6 -6 4 -1 13 -13 20 -41 24 -26 4 -40 12 -40 21 0 12 -11
14 -50 11 -45 -3 -49 -1 -44 17 7 29 -69 52 -109 34 -15 -7 -30 -9 -35 -4 -4
4 -1 10 6 12 22 8 13 24 -11 18 -14 -4 -28 -1 -35 8 -11 13 -44 148 -38 155 2
1 14 -7 29 -18 14 -11 31 -20 39 -20 8 0 19 -5 24 -10 7 -7 19 -8 37 -1 15 6
34 8 42 5 8 -4 15 -1 15 5 0 17 -56 41 -98 41 -42 0 -99 40 -87 61 5 7 13 5
24 -5 25 -23 71 -21 71 2 0 10 -6 24 -12 31 -11 10 -10 11 5 6 9 -4 17 -17 17
-30 0 -30 44 -60 68 -46 18 10 19 10 -32 25 -20 6 -53 80 -45 102 15 45 29 44
-607 44 l-604 0 0 -117z m571 85 c11 -21 11 -22 -4 -9 -10 7 -17 17 -17 22 0
15 9 10 21 -13z m1306 -70 c-3 -8 -6 -5 -6 6 -1 11 2 17 5 13 3 -3 4 -12 1
-19z m718 -128 c3 -5 1 -10 -4 -10 -6 0 -11 5 -11 10 0 6 2 10 4 10 3 0 8 -4
11 -10z m-1386 -253 l26 -11 -29 -4 c-34 -4 -51 10 -41 35 5 13 9 14 12 5 3
-7 17 -18 32 -25z m125 -29 c40 -27 54 -48 25 -41 -10 3 -19 9 -19 14 0 7 -41
29 -80 42 -8 3 -3 6 12 6 15 1 42 -9 62 -21z m-505 -121 c17 -37 40 -76 49
-85 26 -26 125 -212 112 -212 -5 0 -10 4 -10 9 0 6 -13 29 -29 53 -16 24 -43
70 -61 103 -18 33 -45 78 -60 100 -30 44 -51 105 -49 145 1 19 3 17 8 -10 4
-19 22 -66 40 -103z m391 39 c0 -3 -9 -6 -20 -6 -19 0 -27 20 -14 33 6 6 34
-16 34 -27z m213 0 c4 -9 -2 -11 -18 -8 -15 2 -22 9 -18 17 5 16 29 10 36 -9z
m-58 -16 c-3 -5 -12 -10 -18 -10 -7 0 -6 4 3 10 19 12 23 12 15 0z m192 -73
c34 -23 61 -42 59 -44 -2 -2 -25 10 -52 26 -26 17 -51 31 -55 31 -4 0 -23 14
-41 32 l-33 31 30 -18 c17 -10 58 -36 92 -58z m-270 41 c-3 -8 -6 -5 -6 6 -1
11 2 17 5 13 3 -3 4 -12 1 -19z m-37 -19 c0 -14 -17 -10 -23 5 -4 10 -1 13 9
9 7 -3 14 -9 14 -14z m-10 -39 c0 -5 -5 -10 -11 -10 -5 0 -7 5 -4 10 3 6 8 10
11 10 2 0 4 -4 4 -10z m-970 -145 c0 -7 7 -18 15 -25 8 -7 36 -45 62 -84 25
-39 63 -89 84 -111 41 -44 141 -213 136 -229 -2 -5 -13 10 -26 35 -27 52 -160
236 -190 263 -11 11 -21 24 -21 29 0 6 -10 24 -23 41 -26 35 -67 104 -67 113
0 3 7 0 15 -7 8 -7 15 -18 15 -25z m1890 -49 c0 -3 -4 -8 -10 -11 -5 -3 -10
-1 -10 4 0 6 5 11 10 11 6 0 10 -2 10 -4z m-586 -59 c30 -41 14 -41 -18 0 -16
20 -23 34 -16 31 8 -2 23 -16 34 -31z m-197 -12 c32 -29 39 -32 44 -18 4 11
10 2 21 -30 17 -53 12 -58 -23 -21 -29 31 -71 54 -99 54 -11 0 -20 7 -20 15 0
8 7 15 15 15 8 0 15 5 15 10 0 16 6 12 47 -25z m43 15 c0 -5 -2 -10 -4 -10 -3
0 -8 5 -11 10 -3 6 -1 10 4 10 6 0 11 -4 11 -10z m1203 -57 c-10 -26 -22 7
-15 42 l5 30 8 -28 c4 -16 5 -36 2 -44z m-1083 -16 c0 -12 0 -11 -24 28 l-17
30 20 -24 c12 -13 21 -28 21 -34z m-1420 26 c0 -5 -5 -15 -10 -23 -8 -12 -10
-11 -10 8 0 12 5 22 10 22 6 0 10 -3 10 -7z m1210 -17 c0 -7 10 -26 22 -42
l23 -29 -37 28 c-36 27 -68 35 -68 18 0 -19 13 -41 24 -42 6 0 21 -13 34 -29
l22 -28 -40 19 c-45 22 -61 19 -53 -11 3 -12 0 -20 -7 -20 -12 0 -9 -56 6 -94
3 -9 1 -16 -5 -16 -6 0 -11 10 -11 23 0 23 -17 47 -32 47 -13 0 -9 -22 9 -42
15 -17 15 -18 -7 -18 -19 0 -21 -4 -15 -22 4 -13 7 -37 6 -55 0 -18 4 -35 9
-38 6 -3 10 -13 10 -21 0 -13 -3 -12 -17 2 -17 17 -18 16 -23 -22 -7 -55 -51
-144 -72 -144 -28 0 -47 -11 -42 -25 3 -7 -7 -17 -25 -23 -38 -13 -39 -20 -6
-32 34 -13 32 -25 -12 -67 -21 -20 -30 -33 -20 -30 11 4 31 10 45 14 l26 6
-31 -39 c-23 -30 -29 -44 -22 -56 7 -13 4 -21 -13 -33 -21 -14 -23 -14 -27 2
-5 27 -17 31 -73 22 -83 -13 -78 -30 17 -52 85 -19 81 -34 -10 -32 -54 2 -75
-1 -72 -9 3 -7 -4 -12 -14 -12 -16 0 -19 8 -19 44 0 42 30 154 53 197 21 39
35 126 40 236 1 38 8 64 20 76 9 11 17 29 17 40 0 11 9 28 19 37 11 10 25 32
32 49 7 18 23 46 36 63 13 17 23 38 23 47 0 10 7 17 15 17 8 0 15 6 15 13 0 8
10 13 22 13 15 -1 27 7 33 21 5 13 22 25 38 29 16 3 31 12 34 20 6 16 78 20
88 4 10 -16 28 -11 21 6 -3 8 -2 12 4 9 6 -3 10 -12 10 -19z m-261 -41 c0 -5
-6 -1 -14 9 -8 11 -15 24 -15 30 0 5 7 1 15 -10 8 -10 14 -23 14 -29z m1570
-20 c0 -5 -4 -3 -9 5 -5 8 -9 22 -9 30 0 16 17 -16 18 -35z m-2219 -130 c0 -8
-4 -15 -10 -15 -5 0 -7 7 -4 15 4 8 8 15 10 15 2 0 4 -7 4 -15z m-205 -359
c19 -14 19 -15 1 -35 -23 -25 -30 -20 -32 20 -2 33 4 35 31 15z m85 -6 c0 -5
-7 -10 -16 -10 -8 0 -12 5 -9 10 3 6 10 10 16 10 5 0 9 -4 9 -10z m-155 -90
c-3 -5 -10 -10 -16 -10 -5 0 -9 5 -9 10 0 6 7 10 16 10 8 0 12 -4 9 -10z
m1130 -120 c3 -5 1 -10 -4 -10 -6 0 -11 5 -11 10 0 6 2 10 4 10 3 0 8 -4 11
-10z m1434 -202 c1 -18 -4 -28 -13 -28 -20 0 -24 20 -13 60 8 31 10 32 18 15
4 -11 8 -32 8 -47z m-1886 11 c-5 -17 -2 -19 20 -14 14 4 28 2 31 -4 5 -7 -7
-11 -33 -11 -46 0 -57 11 -39 39 15 24 28 18 21 -10z m67 21 c0 -5 -4 -10 -10
-10 -5 0 -10 5 -10 10 0 6 5 10 10 10 6 0 10 -4 10 -10z m-755 -60 c3 -5 -1
-10 -9 -10 -9 0 -16 5 -16 10 0 6 4 10 9 10 6 0 13 -4 16 -10z m850 0 c4 -6
-12 -10 -39 -10 -25 0 -46 5 -46 10 0 6 18 10 39 10 22 0 43 -4 46 -10z m-610
-100 c3 -5 -1 -10 -9 -10 -8 0 -18 5 -21 10 -3 6 1 10 9 10 8 0 18 -4 21 -10z
m800 -30 c-3 -5 -14 -10 -23 -10 -15 0 -15 2 -2 10 20 13 33 13 25 0z m-115
-5 c0 -2 -9 -9 -20 -15 -22 -12 -44 -5 -35 11 6 9 55 13 55 4z m-1006 -50 c3
-8 1 -15 -4 -15 -6 0 -10 7 -10 15 0 8 2 15 4 15 2 0 6 -7 10 -15z m2503 -21
c-3 -3 -12 -4 -19 -1 -8 3 -5 6 6 6 11 1 17 -2 13 -5z m-44 -91 c-7 -2 -19 -2
-25 0 -7 3 -2 5 12 5 14 0 19 -2 13 -5z m-963 -13 c0 -5 -5 -10 -11 -10 -5 0
-7 5 -4 10 3 6 8 10 11 10 2 0 4 -4 4 -10z m1280 -37 c14 -7 32 -17 40 -22 8
-5 53 -31 100 -58 l85 -48 -35 -5 c-20 -4 -56 -16 -81 -28 -25 -12 -62 -22
-82 -22 -39 0 -48 -15 -24 -39 19 -21 -51 17 -74 40 -18 18 -27 79 -11 79 4 0
14 -15 22 -32 8 -18 22 -34 30 -37 12 -3 13 -1 4 10 -6 8 -17 44 -25 82 -8 42
-18 67 -26 67 -7 0 -13 9 -13 20 0 17 5 19 33 13 17 -3 43 -12 57 -20z m195
-3 c3 -5 -1 -10 -9 -10 -9 0 -16 5 -16 10 0 6 4 10 9 10 6 0 13 -4 16 -10z
m-535 -51 c0 -6 10 -19 23 -29 12 -10 20 -20 17 -23 -3 -3 -23 10 -45 29 -35
30 -37 34 -17 34 12 0 22 -5 22 -11z m-930 -30 c0 -11 -4 -17 -10 -14 -5 3
-10 15 -10 26 0 11 5 17 10 14 6 -3 10 -15 10 -26z m910 -76 c0 -7 -39 17 -46
28 -3 6 5 3 20 -6 14 -10 26 -19 26 -22z m-880 -9 c0 -8 -4 -12 -10 -9 -5 3
-10 10 -10 16 0 5 5 9 10 9 6 0 10 -7 10 -16z m819 -64 c23 -44 27 -70 11 -70
-5 0 -10 10 -10 23 0 13 -11 34 -25 47 -13 12 -22 27 -19 31 10 17 22 8 43
-31z m335 -55 c22 -16 35 -30 29 -32 -15 -5 -93 44 -93 58 0 5 -4 8 -9 4 -5
-3 -17 5 -25 17 -26 37 -18 41 22 10 20 -16 55 -41 76 -57z m-1089 25 c14 -22
52 -62 85 -89 34 -28 59 -51 57 -51 -43 0 -187 140 -187 181 0 17 20 -1 45
-41z m-1215 4 c0 -2 -7 -4 -15 -4 -8 0 -15 4 -15 10 0 5 7 7 15 4 8 -4 15 -8
15 -10z m1883 -69 c1 -6 -12 -11 -29 -13 -18 -2 -40 -12 -50 -23 -10 -11 -30
-19 -49 -19 -18 0 -43 -9 -57 -19 -13 -11 -46 -22 -73 -26 -28 -4 -54 -11 -60
-15 -5 -4 -28 -5 -50 -1 l-40 8 35 6 c19 3 51 8 70 11 19 2 91 26 160 54 127
51 140 54 143 37z m-1318 -44 c-13 -12 -189 -91 -203 -91 -9 0 -66 -55 -138
-135 -114 -126 -163 -172 -168 -159 -3 7 2 20 11 26 46 38 211 223 226 255 8
19 7 27 -11 46 -29 31 -28 41 3 21 31 -20 102 -12 137 16 24 18 54 26 118 29
21 0 30 -3 25 -8z m870 -51 c3 -5 -3 -10 -14 -10 -11 0 -23 5 -26 10 -3 6 3
10 14 10 11 0 23 -4 26 -10z m-20 -321 c11 -21 30 -32 86 -49 39 -11 70 -23
68 -25 -4 -3 -65 7 -111 20 -48 12 -32 -24 50 -123 24 -29 42 -55 39 -58 -9
-9 -112 128 -145 193 -36 70 -43 104 -16 82 8 -7 22 -25 29 -40z m295 -109
c18 -12 2 -12 -25 0 -13 6 -15 9 -5 9 8 0 22 -4 30 -9z m80 -31 c13 -7 13 -8
0 -8 -8 0 -26 6 -40 15 l-25 15 25 -7 c14 -3 32 -10 40 -15z"/>
<path d="M1390 2523 c0 -5 9 -14 20 -21 11 -7 20 -8 20 -2 0 5 -9 14 -20 20
-11 6 -20 7 -20 3z"/>
<path d="M2520 3589 c0 -5 5 -7 10 -4 6 3 10 8 10 11 0 2 -4 4 -10 4 -5 0 -10
-5 -10 -11z"/>
<path d="M2960 3588 c0 -7 4 -19 9 -26 6 -10 12 -7 25 12 16 26 16 26 -9 26
-14 0 -25 -6 -25 -12z"/>
<path d="M3093 3594 c7 -8 -22 -39 -36 -39 -6 0 -18 -15 -28 -32 -10 -18 -14
-33 -9 -33 6 0 10 -7 10 -15 0 -8 -6 -15 -13 -15 -14 0 -87 -75 -87 -90 0 -4
-3 -15 -6 -24 -4 -10 -1 -16 9 -16 8 0 17 5 19 12 4 11 19 16 63 22 11 1 21
10 23 19 3 12 10 15 31 11 35 -7 61 17 61 55 0 15 5 32 11 38 14 14 -10 55
-28 48 -7 -2 -13 2 -13 9 0 8 7 17 16 20 22 8 24 8 24 -8 0 -8 9 -21 20 -29
16 -11 19 -21 14 -44 -8 -42 8 -48 59 -21 62 33 86 56 80 79 -4 14 0 19 16 19
14 0 21 -6 21 -20 0 -11 3 -20 8 -20 12 0 62 50 62 61 0 6 6 9 13 6 8 -3 20
-1 28 4 9 6 -6 9 -43 9 -46 0 -57 -3 -61 -17 -4 -17 -5 -17 -6 0 -1 13 -10 17
-37 17 -28 0 -35 -3 -30 -15 7 -19 1 -19 -18 1 -9 8 -16 11 -16 5 0 -6 -5 -11
-11 -11 -5 0 -7 5 -4 10 4 6 -5 10 -21 10 -26 0 -26 -1 -11 -18 10 -10 14 -22
10 -25 -12 -13 -21 -7 -27 18 -6 22 -12 25 -53 25 -25 0 -44 -3 -40 -6z m-3
-84 c0 -5 -4 -10 -10 -10 -5 0 -10 5 -10 10 0 6 5 10 10 10 6 0 10 -4 10 -10z"/>
<path d="M3435 3534 c-49 -34 -107 -78 -127 -98 -21 -21 -42 -34 -48 -31 -5 3
-10 -1 -10 -9 0 -20 -19 -30 -53 -28 -28 2 -29 1 -25 -39 2 -27 -1 -44 -9 -46
-9 -3 -13 6 -13 26 0 32 -16 42 -26 16 -3 -8 -14 -17 -24 -20 -27 -9 -36 -46
-16 -60 15 -12 13 -45 -3 -45 -11 0 -32 -50 -26 -61 11 -17 64 -10 77 11 7 11
18 20 25 20 7 0 13 12 13 28 0 37 17 62 29 44 6 -11 13 -7 30 14 12 15 21 21
22 13 1 -16 27 49 28 70 1 7 -5 11 -13 8 -10 -4 -13 -1 -9 9 3 8 8 12 11 10 3
-3 11 -1 18 5 10 8 13 2 11 -30 -2 -41 15 -59 21 -21 2 12 11 20 23 20 18 0
23 10 20 35 -1 6 8 -1 19 -15 l20 -25 24 26 c16 19 31 26 47 23 49 -8 60 14
57 118 l-3 94 -90 -62z m-11 -75 c-3 -5 -10 -7 -15 -3 -5 3 -7 10 -3 15 3 5
10 7 15 3 5 -3 7 -10 3 -15z m-50 -44 c-4 -8 -10 -13 -15 -10 -4 3 -6 12 -3
20 4 8 10 13 15 10 4 -3 6 -12 3 -20z m-44 -15 c0 -5 -5 -10 -11 -10 -5 0 -7
5 -4 10 3 6 8 10 11 10 2 0 4 -4 4 -10z m-225 -120 c3 -5 1 -10 -4 -10 -6 0
-11 5 -11 10 0 6 2 10 4 10 3 0 8 -4 11 -10z"/>
<path d="M1620 3570 c-12 -8 -9 -10 13 -10 15 0 30 0 34 -1 4 0 9 4 11 10 5
14 -38 14 -58 1z"/>
<path d="M1486 3472 c-2 -4 4 -9 15 -9 11 -1 17 2 14 8 -7 11 -22 12 -29 1z"/>
<path d="M1670 3458 c-21 -10 -22 -12 -7 -15 26 -7 69 6 62 17 -8 12 -23 12
-55 -2z"/>
<path d="M1620 3409 c0 -5 5 -7 10 -4 6 3 10 8 10 11 0 2 -4 4 -10 4 -5 0 -10
-5 -10 -11z"/>
<path d="M1764 3378 c-12 -20 -44 -31 -44 -15 0 7 -7 4 -15 -7 -7 -10 -18 -15
-23 -12 -5 3 -15 -1 -22 -9 -7 -8 -22 -15 -34 -15 -20 -1 -20 -2 4 -15 28 -16
156 -20 179 -6 15 10 9 35 -18 70 -15 20 -20 21 -27 9z"/>
<path d="M1580 3339 c0 -5 5 -7 10 -4 6 3 10 8 10 11 0 2 -4 4 -10 4 -5 0 -10
-5 -10 -11z"/>
<path d="M3483 3338 c-13 -6 -23 -17 -23 -24 0 -12 50 -54 64 -54 3 0 6 20 6
45 0 48 -7 52 -47 33z"/>
<path d="M3026 3283 c3 -17 2 -39 -3 -48 -8 -14 -11 -12 -17 15 -6 31 -8 32
-42 27 -47 -8 -66 -24 -59 -51 6 -20 5 -20 -8 -3 -13 16 -16 15 -45 -10 -55
-49 -82 -93 -70 -113 11 -17 13 -16 45 2 l33 20 9 -23 8 -23 14 22 c8 12 21
22 31 22 9 0 20 5 23 10 4 6 14 8 24 5 19 -6 110 79 97 92 -4 4 -10 2 -14 -4
-4 -6 -8 6 -8 28 -1 22 -7 46 -13 52 -9 9 -10 4 -5 -20z"/>
<path d="M3333 3240 c-35 -21 -41 -38 -21 -58 18 -18 28 -15 28 8 0 11 5 20
10 20 6 0 10 -5 10 -12 0 -8 6 -6 17 4 13 13 14 20 5 31 -7 8 -9 17 -5 20 14
14 -13 6 -44 -13z"/>
<path d="M3522 3180 c0 -14 2 -19 5 -12 2 6 2 18 0 25 -3 6 -5 1 -5 -13z"/>
<path d="M3208 3156 c-44 -39 -46 -46 -15 -46 13 0 32 -9 42 -20 10 -12 35
-30 54 -42 20 -12 50 -35 66 -51 17 -16 42 -35 58 -43 15 -8 27 -23 27 -33 0
-10 13 -37 30 -59 16 -23 36 -56 44 -74 14 -32 14 -29 15 66 1 82 -1 97 -14
93 -8 -4 -17 -2 -20 2 -2 5 4 11 15 14 34 9 24 87 -11 87 -13 0 -19 7 -19 21
0 15 -4 19 -16 15 -9 -3 -32 3 -51 15 -18 12 -42 19 -53 16 -11 -3 -21 1 -24
9 -3 8 -12 14 -21 14 -8 0 -15 6 -15 14 0 7 -8 16 -17 20 -10 3 -22 8 -28 11
-5 2 -27 -11 -47 -29z"/>
<path d="M3360 3160 c0 -5 7 -10 15 -10 8 0 15 5 15 10 0 6 -7 10 -15 10 -8 0
-15 -4 -15 -10z"/>
<path d="M2898 3089 c-12 -6 -18 -22 -18 -42 l1 -32 15 28 c16 30 27 36 17 10
-6 -16 -5 -16 10 -4 17 14 24 47 8 37 -5 -4 -11 -2 -13 3 -2 6 -10 6 -20 0z"/>
<path d="M2845 3060 c-7 -12 -45 -165 -45 -182 0 -6 6 -6 15 2 10 8 15 30 15
62 0 44 2 49 15 38 13 -11 15 -6 15 39 0 51 -3 60 -15 41z"/>
<path d="M2787 3053 c-4 -3 -7 -11 -7 -17 0 -6 5 -5 12 2 6 6 9 14 7 17 -3 3
-9 2 -12 -2z"/>
<path d="M2688 3007 c-3 -19 -2 -25 4 -19 6 6 8 18 6 28 -3 14 -5 12 -10 -9z"/>
<path d="M2751 2964 c0 -11 3 -14 6 -6 3 7 2 16 -1 19 -3 4 -6 -2 -5 -13z"/>
<path d="M3010 2847 c0 -27 13 -36 26 -16 3 6 -1 18 -10 27 -15 15 -16 14 -16
-11z"/>
<path d="M3085 2861 c-3 -5 -1 -12 5 -16 5 -3 10 1 10 9 0 18 -6 21 -15 7z"/>
<path d="M3037 2773 c-13 -21 -28 -49 -32 -63 -4 -14 -18 -51 -32 -83 -13 -32
-21 -62 -17 -68 3 -5 1 -15 -4 -22 -23 -27 -45 -214 -46 -382 -1 -135 3 -185
18 -242 10 -40 21 -73 25 -73 10 0 81 188 81 216 0 14 4 23 8 20 5 -3 21 34
36 80 24 74 27 94 20 147 -4 34 -6 79 -5 100 2 26 -3 45 -16 59 -18 20 -18 21
5 14 17 -6 22 -3 23 11 1 10 3 43 5 73 3 44 0 61 -18 84 -19 27 -20 30 -4 41
20 15 21 44 0 73 -8 12 -13 26 -9 31 3 5 1 12 -4 16 -6 3 -21 -11 -34 -32z
m-10 -270 c11 -36 5 -113 -9 -113 -6 0 -8 13 -4 34 4 22 1 48 -8 70 -12 30
-13 36 -1 36 7 0 17 -12 22 -27z"/>
<path d="M3419 2630 c-22 -19 -29 -29 -18 -30 15 0 64 48 57 56 -3 2 -20 -10
-39 -26z"/>
<path d="M3321 2527 c-34 -33 -61 -66 -61 -73 0 -7 -4 -14 -8 -16 -9 -3 -81
-107 -101 -146 -7 -12 -9 -27 -6 -32 10 -16 76 35 145 112 36 40 75 81 87 91
12 11 25 34 28 51 4 17 9 38 11 47 3 10 -3 18 -15 22 -15 3 -36 -11 -80 -56z
m44 -37 c-5 -8 -11 -8 -17 -2 -6 6 -7 16 -3 22 5 8 11 8 17 2 6 -6 7 -16 3
-22z m-59 -47 c-10 -10 -19 5 -10 18 6 11 8 11 12 0 2 -7 1 -15 -2 -18z"/>
<path d="M3132 2468 c-24 -88 -27 -134 -13 -157 8 -12 12 -9 22 15 6 16 18 43
27 60 11 24 12 35 3 52 -8 14 -8 22 -1 22 13 0 13 47 0 55 -5 3 -7 12 -3 20 3
8 1 15 -4 15 -4 0 -19 -37 -31 -82z"/>
<path d="M180 2363 l0 -103 50 0 c28 0 50 3 50 6 0 10 -56 127 -79 164 l-21
35 0 -102z"/>
<path d="M3381 2429 c-16 -22 -20 -34 -12 -43 13 -15 4 -26 -20 -26 -20 0 -99
-78 -99 -99 0 -7 -6 -11 -14 -8 -7 3 -24 -2 -37 -11 -13 -9 -33 -16 -44 -17
-27 0 -65 -78 -68 -136 -1 -24 -9 -52 -18 -62 -9 -10 -24 -39 -34 -65 -9 -26
-25 -68 -36 -94 -23 -55 -23 -58 -6 -58 14 0 58 43 163 159 33 36 98 105 146
154 l86 89 -1 78 c0 43 4 85 10 92 13 17 25 78 15 78 -5 0 -18 -14 -31 -31z
m-111 -226 c0 -7 -4 -13 -10 -13 -5 0 -10 12 -10 28 0 21 2 24 10 12 5 -8 10
-21 10 -27z m-50 -63 c0 -5 -4 -10 -10 -10 -5 0 -10 5 -10 10 0 6 5 10 10 10
6 0 10 -4 10 -10z m-50 -40 c0 -5 -5 -10 -11 -10 -5 0 -7 5 -4 10 3 6 8 10 11
10 2 0 4 -4 4 -10z"/>
<path d="M3287 1863 c-4 -3 -7 -13 -7 -21 0 -12 3 -12 15 -2 8 7 15 16 15 21
0 11 -14 12 -23 2z"/>
<path d="M3235 1700 c-3 -5 1 -10 9 -10 9 0 16 5 16 10 0 6 -4 10 -9 10 -6 0
-13 -4 -16 -10z"/>
<path d="M3101 1681 c-13 -3 -29 -14 -35 -24 -9 -14 -6 -22 19 -42 37 -30 45
-31 45 -3 0 12 12 35 27 50 l27 28 -30 -1 c-16 -1 -40 -4 -53 -8z"/>
<path d="M3063 1473 c-18 -38 -18 -40 28 -69 45 -28 68 -24 29 6 -18 13 -24
28 -24 54 0 43 -16 47 -33 9z"/>
<path d="M1477 359 c-9 -13 -19 -37 -23 -54 -4 -16 -11 -36 -17 -42 -7 -10 22
-13 142 -13 95 0 150 4 146 10 -10 16 -177 111 -206 117 -21 4 -31 0 -42 -18z"/>
</g>
</svg>
